<svg xmlns="http://www.w3.org/2000/svg" viewBox="0 0 1000 265" role="img" aria-labelledby="title desc"><title id="title">IMASYS · Innovation Machinery Systems</title><desc id="desc">Logotipo corporativo IMASYS</desc><defs><linearGradient id="g" x1="0" y1="0" x2="1" y2="1"><stop offset="0" stop-color="#08a9b0"/><stop offset="1" stop-color="#00a5ad"/></linearGradient><linearGradient id="m" x1="0" y1="0" x2="1" y2="1"><stop offset="0" stop-color="#9bdac2"/><stop offset="1" stop-color="#73cdb0"/></linearGradient></defs><g transform="translate(0 5)"><path fill="url(#g)" d="M120 0c-58 15-101 53-119 104-15 42-7 91 25 130l30-42c-19-28-23-59-12-86 12-31 37-54 69-65l24-8z"/><path fill="url(#g)" d="M174 18c25 27 39 63 38 100-1 35-16 68-42 92l30 39c39-35 61-83 61-133 0-47-18-91-51-123l-36 25z"/><path fill="url(#m)" d="M113 82c-32 18-51 49-51 84 0 26 10 50 29 68l38-43c-10-10-16-23-16-38 0-19 10-36 28-46l-28-25z"/><circle cx="126" cy="129" r="47" fill="#86d5bb"/><path fill="url(#g)" d="M176 73c-13 18-20 38-20 60 0 28 12 54 33 73l30-37c-11-10-17-23-17-36 0-11 4-22 11-31l-37-29z"/></g><text x="305" y="74" font-family="Arial,Helvetica,sans-serif" font-size="24" font-weight="500" letter-spacing="6" fill="#8b8d91">INNOVATION · MACHINERY · SYSTEMS</text><text x="298" y="190" font-family="Arial,Helvetica,sans-serif" font-size="112" font-weight="500" letter-spacing="-3" fill="#08a9b0">imasys</text></svg>